<!-- Generated by IcoMoon.io -->
<svg version="1.1" xmlns="http://www.w3.org/2000/svg" width="32" height="32" viewBox="0 0 32 32">
<title>clock</title>
<path fill="#212121" d="M31.296 15.301c-0.001-8.452-6.855-15.303-15.308-15.301s-15.303 6.855-15.301 15.308c0.002 6.788 4.422 12.543 10.541 14.545l0.108 0.031c0.061 0.019 0.123 0.029 0.187 0.029 0.12 0 0.238-0.032 0.342-0.094 0.135-0.080 0.236-0.207 0.283-0.357l3.865-12.25c1.054-0.004 1.906-0.859 1.906-1.913 0-1.056-0.856-1.913-1.913-1.913-0.303 0-0.59 0.071-0.845 0.196l0.011-0.005-5.106-5.107c-0.114-0.11-0.271-0.179-0.443-0.179-0.352 0-0.638 0.286-0.638 0.638 0 0.172 0.068 0.328 0.179 0.443l-0-0 5.103 5.109c-0.121 0.241-0.191 0.525-0.191 0.826 0 0.602 0.283 1.137 0.723 1.48l0.004 0.003-3.682 11.673c-7.278-2.681-11.004-10.754-8.324-18.032s10.754-11.004 18.032-8.323c7.278 2.681 11.004 10.754 8.323 18.032-1.345 3.581-4.003 6.406-7.374 7.938l-0.088 0.036-0.398-1.874c-0.063-0.291-0.318-0.506-0.624-0.506-0.164 0-0.313 0.062-0.426 0.163l0.001-0.001-3.837 3.426c-0.132 0.117-0.214 0.287-0.214 0.477 0 0.283 0.185 0.524 0.441 0.606l0.005 0.001 4.899 1.563c0.058 0.020 0.126 0.031 0.196 0.031 0.352 0 0.637-0.285 0.637-0.637 0-0.047-0.005-0.093-0.015-0.138l0.001 0.004-0.391-1.839c5.528-2.374 9.329-7.772 9.329-14.057 0-0.011 0-0.023-0-0.034v0.002zM15.992 14.664c0.352 0 0.638 0.286 0.638 0.638s-0.285 0.638-0.638 0.638v0c-0.352 0-0.638-0.286-0.638-0.638s0.286-0.638 0.638-0.638v0zM18.092 29.528l2.184-1.948 0.603 2.84-2.787-0.892z"></path>
<path fill="none" stroke="#000" stroke-linejoin="miter" stroke-linecap="butt" stroke-miterlimit="4" stroke-width="0.4571" d="M31.068 15.302v-0c-0.001-8.326-6.752-15.075-15.079-15.073s-15.074 6.753-15.072 15.079c0.001 6.686 4.355 12.355 10.383 14.328l0.107 0.030c0.038 0.012 0.078 0.018 0.117 0.018h0c0.084-0 0.162-0.023 0.229-0.063l-0.002 0.001c0.086-0.051 0.151-0.133 0.181-0.229l3.915-12.409 0.166-0.001c0.927-0.005 1.676-0.757 1.676-1.685 0-0.93-0.754-1.685-1.685-1.685-0.003 0-0.006 0-0.009 0h0c-0.263 0.001-0.51 0.063-0.731 0.173l0.010-0.004-0.146 0.072-0.116-0.115-5.104-5.105c-0.073-0.071-0.174-0.114-0.284-0.114-0.226 0-0.409 0.183-0.409 0.409 0 0.11 0.044 0.21 0.115 0.284l-0-0 5.217 5.223-0.072 0.147c-0.106 0.212-0.168 0.461-0.168 0.725 0 0.528 0.249 0.999 0.635 1.3l0.004 0.003 0.126 0.097-0.048 0.152-3.755 11.901-0.225-0.083c-7.396-2.725-11.183-10.929-8.459-18.326s10.929-11.183 18.325-8.459c7.397 2.725 11.184 10.929 8.459 18.326-1.367 3.639-4.069 6.51-7.494 8.067l-0.090 0.036-0.258 0.115-0.058-0.276-0.398-1.874h-0c-0.040-0.187-0.204-0.325-0.4-0.325-0.105 0-0.201 0.040-0.273 0.104l0-0 10.668-10.764zM31.068 15.302c0 0.009 0 0.021 0 0.032 0 6.191-3.744 11.507-9.091 13.809l-0.098 0.037-0.174 0.073 0.039 0.185 0.391 1.839c0.006 0.026 0.009 0.055 0.009 0.086 0 0.226-0.183 0.409-0.409 0.409-0.045 0-0.088-0.007-0.129-0.021l0.003 0.001-4.899-1.563c-0.167-0.054-0.286-0.208-0.286-0.39 0-0.122 0.053-0.231 0.137-0.305l0-0 3.837-3.425 10.668-10.765zM17.941 29.357l-0.299 0.266 3.542 1.134-0.081-0.385-0.685-3.226-2.478 2.211zM16.858 15.302c0-0.478-0.388-0.866-0.866-0.866s-0.866 0.388-0.866 0.866v0c0 0.478 0.388 0.866 0.866 0.866s0.866-0.388 0.866-0.866v0z"></path>
<path fill="#2196f3" d="M15.354 3.185v1.275c0 0.352 0.286 0.638 0.638 0.638s0.638-0.285 0.638-0.638v0-1.275c0-0.352-0.285-0.638-0.638-0.638s-0.638 0.285-0.638 0.638v0zM3.876 14.664c-0.352 0-0.638 0.286-0.638 0.638s0.285 0.638 0.638 0.638h1.275c0.352 0 0.638-0.286 0.638-0.638s-0.285-0.638-0.638-0.638h-1.275zM28.108 15.939c0.352 0 0.638-0.286 0.638-0.638s-0.285-0.638-0.638-0.638h-1.275c-0.352 0-0.638 0.286-0.638 0.638s0.285 0.638 0.638 0.638h1.275z"></path>
</svg>
